<?xml version="1.0" standalone="no"?>
<!DOCTYPE svg PUBLIC "-//W3C//DTD SVG 20010904//EN"
 "http://www.w3.org/TR/2001/REC-SVG-20010904/DTD/svg10.dtd">
<svg version="1.0" xmlns="http://www.w3.org/2000/svg"
 width="420.000000pt" height="420.000000pt" viewBox="0 0 420.000000 420.000000"
 preserveAspectRatio="xMidYMid meet">
<metadata>
Created by potrace 1.11, written by Peter Selinger 2001-2013
</metadata>
<g transform="translate(0.000000,420.000000) scale(0.100000,-0.100000)"
fill="#000000" stroke="none">
<path d="M2734 3886 c-72 -31 -93 -108 -54 -193 35 -78 115 -104 181 -60 97
65 85 208 -21 251 -48 19 -65 19 -106 2z"/>
<path d="M1100 3718 c0 -4 9 -46 20 -93 11 -47 20 -92 20 -99 0 -7 -34 -37
-75 -65 -41 -29 -75 -55 -75 -57 0 -3 16 -44 37 -91 21 -49 32 -88 27 -91 -6
-4 -38 -26 -73 -50 -34 -24 -64 -49 -67 -56 -3 -7 11 -48 31 -91 24 -53 32
-82 25 -90 -5 -6 -39 -31 -75 -56 -36 -24 -65 -49 -65 -55 0 -6 9 -33 21 -59
11 -25 19 -48 17 -50 -1 -1 -47 -26 -100 -55 -54 -28 -98 -54 -98 -57 0 -3 47
20 104 51 l104 55 10 -29 c10 -29 9 -30 -68 -84 l-79 -56 31 -67 c53 -118 55
-104 -24 -159 -39 -27 -75 -52 -80 -55 -4 -3 8 -42 27 -86 19 -45 35 -86 35
-91 0 -6 -30 -32 -67 -58 -38 -26 -71 -50 -76 -54 -4 -3 9 -43 28 -87 19 -45
35 -85 35 -90 0 -5 -34 -33 -75 -62 -41 -28 -75 -54 -75 -56 0 -2 16 -40 35
-84 19 -43 35 -83 35 -88 0 -6 -83 -67 -143 -105 -7 -4 3 -38 28 -98 l38 -91
-33 -34 c-27 -27 -42 -35 -79 -37 l-46 -3 -38 -130 c-21 -71 -41 -137 -44
-145 -3 -8 -24 50 -47 130 l-42 145 -67 3 -67 3 0 -286 0 -285 50 0 50 0 0
162 c0 97 4 158 9 152 5 -5 28 -78 51 -161 56 -203 61 -203 122 10 l46 162 1
-162 1 -163 55 0 55 0 0 259 0 259 23 6 c47 12 64 6 91 -32 l27 -39 -46 -213
c-25 -117 -45 -219 -45 -227 0 -9 15 -13 49 -13 54 0 53 0 66 73 l6 37 54 0
54 0 6 -37 c13 -73 12 -73 66 -73 27 0 49 3 49 8 0 4 -19 100 -42 214 -23 114
-40 209 -38 212 3 2 16 7 30 10 22 6 30 -1 63 -48 l37 -54 0 -171 0 -171 55 0
54 0 3 147 3 147 55 -145 55 -144 53 -3 52 -3 0 111 0 111 43 18 42 18 5 -83
c6 -89 19 -118 74 -158 39 -29 133 -29 172 0 45 33 66 69 71 120 5 43 23 74
44 74 21 0 44 -61 49 -130 l5 -75 53 -3 52 -3 0 36 c0 35 2 37 66 66 37 16 68
28 69 27 1 -2 12 -18 24 -36 16 -22 22 -43 19 -63 -4 -26 -2 -29 23 -29 15 0
29 -7 33 -15 4 -12 20 -8 86 20 95 41 100 41 100 15 0 -13 7 -20 19 -20 11 0
32 -21 55 -55 40 -61 29 -60 140 -11 32 14 64 26 70 26 6 0 31 -29 55 -65 25
-36 50 -70 56 -75 6 -5 40 4 89 26 44 19 84 34 90 34 6 0 44 -33 84 -73 43
-42 72 -64 69 -52 -3 11 -13 49 -22 85 -9 36 -18 72 -21 81 -3 10 22 34 76 74
44 33 79 64 76 70 -2 5 -18 45 -36 88 l-33 79 29 23 c16 14 32 24 35 25 4 0 8
-40 11 -88 6 -132 46 -187 143 -198 40 -4 59 -1 95 18 76 39 80 55 80 326 l0
232 -50 0 -50 0 0 -225 c0 -212 -1 -226 -20 -245 -25 -25 -52 -26 -73 -2 -15
16 -17 48 -17 245 0 204 -2 227 -17 227 -9 0 1 12 25 30 23 17 42 33 42 36 0
3 -16 42 -35 86 -25 55 -32 84 -26 92 6 7 40 32 76 57 36 24 65 48 65 52 0 5
-16 45 -35 90 -19 44 -35 82 -35 83 0 2 34 26 75 55 41 28 75 56 75 61 0 6
-16 46 -35 91 -19 44 -33 82 -31 84 2 2 37 27 79 56 l76 53 -39 88 -39 87 66
47 c36 26 72 52 79 57 11 8 7 25 -21 89 -19 44 -35 85 -35 91 0 6 34 35 75 64
41 28 75 54 75 55 0 2 -16 38 -35 80 -19 43 -35 82 -35 89 0 6 33 45 73 85 57
58 67 72 47 68 -14 -3 -54 -13 -90 -21 -36 -8 -72 -15 -82 -15 -9 0 -37 30
-64 68 -26 37 -50 71 -54 75 -4 5 -44 -7 -89 -27 -45 -20 -85 -36 -90 -36 -4
0 -31 34 -60 75 -28 41 -54 75 -57 75 -3 0 -44 -16 -90 -36 -47 -20 -86 -35
-88 -33 -1 2 -24 34 -50 71 -26 37 -52 70 -57 73 -5 3 -45 -10 -90 -29 -55
-24 -86 -33 -94 -26 -6 5 -31 39 -56 75 -24 36 -49 65 -56 65 -6 0 -46 -16
-89 -35 -42 -19 -78 -35 -80 -35 -1 0 -26 34 -55 75 -28 41 -57 75 -64 75 -6
0 -47 -16 -91 -35 -72 -31 -80 -33 -91 -18 -7 9 -13 20 -13 25 0 4 46 31 103
59 120 61 317 169 317 175 0 5 -39 -14 -252 -127 -92 -49 -171 -89 -176 -89
-7 0 -45 48 -77 98 -1 1 -37 -14 -79 -33 -42 -19 -83 -35 -91 -35 -7 0 -35 30
-61 68 -26 37 -50 70 -54 75 -3 4 -43 -9 -87 -28 -45 -19 -85 -35 -90 -35 -5
0 -33 34 -62 76 -29 41 -58 73 -65 71 -6 -3 -46 -20 -89 -38 l-77 -33 -75 74
c-41 41 -75 71 -75 68z m627 -1010 c4 -7 8 -53 8 -103 0 -49 1 -292 3 -538 l2
-449 103 2 c56 1 108 2 115 1 13 -1 17 -37 4 -43 -5 -1 -15 -61 -23 -133 -12
-111 -17 -130 -32 -133 -12 -3 -20 4 -24 17 -4 15 -11 20 -27 16 -11 -2 -129
-7 -261 -10 -134 -4 -277 -13 -324 -21 -126 -22 -121 -27 -123 132 -1 74 -2
142 -2 152 -1 10 5 15 14 13 20 -6 232 -2 239 4 2 3 5 140 5 304 0 230 -3 303
-13 315 -9 11 -11 30 -7 61 4 25 3 45 -2 45 -5 0 -42 -11 -82 -25 -129 -44
-132 -41 -134 140 l-2 135 27 0 c15 0 40 5 56 12 35 14 32 13 68 22 17 4 53
13 80 21 28 8 61 16 75 19 82 18 156 39 165 47 13 13 83 11 92 -3z m415 -24
c4 -3 212 -7 465 -9 l458 -3 -3 -100 c-2 -63 1 -103 7 -107 15 -9 14 -62 -2
-68 -15 -6 -90 -133 -136 -232 -67 -141 -146 -396 -157 -501 l-7 -64 67 0 66
0 0 -106 c0 -96 2 -107 21 -123 l21 -17 -26 -17 c-22 -15 -33 -16 -66 -7 -30
8 -62 8 -123 -1 -46 -7 -170 -12 -281 -12 -164 1 -201 4 -214 17 -12 12 -13
18 -3 30 13 16 16 31 27 159 l7 77 51 0 c85 0 94 6 101 59 4 25 15 83 26 129
10 46 19 96 19 111 0 66 121 351 193 454 10 16 18 30 15 32 -8 8 -179 17 -213
11 -41 -8 -58 -36 -70 -118 -7 -47 -7 -48 19 -48 19 0 26 -5 26 -20 0 -16 -7
-20 -32 -21 -18 0 -42 -4 -53 -8 -12 -5 -36 -3 -59 5 -21 8 -69 14 -107 14
-62 0 -70 2 -85 25 -15 23 -16 36 -5 108 6 45 11 144 11 220 0 126 1 137 18
137 10 0 21 -3 24 -6z m-1423 -1801 c7 -43 15 -86 17 -95 5 -15 -2 -18 -41
-18 -39 0 -46 3 -41 18 2 9 10 52 17 95 7 47 16 77 24 77 8 0 17 -30 24 -77z
m418 11 l2 -39 -14 30 c-18 38 -19 58 -2 53 6 -3 13 -22 14 -44z m348 -129
c23 -33 46 -55 56 -55 16 0 17 -3 7 -25 -20 -45 -76 -45 -96 1 -11 23 -17 134
-8 134 2 0 21 -25 41 -55z"/>
<path d="M1619 2621 c-68 -67 -57 -77 11 -11 29 27 50 53 47 57 -4 3 -30 -17
-58 -46z"/>
<path d="M1510 2610 c-32 -32 -23 -47 10 -15 17 16 30 30 30 32 0 10 -23 0
-40 -17z"/>
<path d="M1312 2563 c-7 -2 -17 -14 -23 -26 -11 -20 -10 -20 17 3 16 14 31 26
33 28 7 4 -14 1 -27 -5z"/>
<path d="M1651 2536 c-10 -12 -8 -17 8 -26 19 -9 21 -8 21 15 0 28 -12 32 -29
11z"/>
<path d="M1210 2529 c0 -5 5 -7 10 -4 6 3 10 8 10 11 0 2 -4 4 -10 4 -5 0 -10
-5 -10 -11z"/>
<path d="M1655 2446 c-11 -15 -32 -43 -47 -61 -41 -48 -34 -52 12 -8 23 21 47
40 54 43 8 3 10 14 6 30 l-6 24 -19 -28z"/>
<path d="M1275 2399 c-20 -22 -34 -43 -31 -47 4 -3 13 3 21 14 65 83 70 99 10
33z"/>
<path d="M1449 2393 c-13 -16 -12 -17 4 -4 9 7 17 15 17 17 0 8 -8 3 -21 -13z"/>
<path d="M1663 2323 c-10 -15 -29 -39 -41 -53 -13 -14 -28 -33 -34 -44 -9 -17
-8 -17 9 -5 57 40 81 68 85 97 6 39 3 40 -19 5z"/>
<path d="M1450 2279 c0 -5 5 -7 10 -4 6 3 10 8 10 11 0 2 -4 4 -10 4 -5 0 -10
-5 -10 -11z"/>
<path d="M1481 2196 c-13 -13 -21 -31 -19 -39 2 -9 13 -1 30 24 31 43 24 52
-11 15z"/>
<path d="M1661 2167 c-13 -21 -12 -21 5 -5 10 10 16 20 13 22 -3 3 -11 -5 -18
-17z"/>
<path d="M1505 2077 c-31 -28 -46 -49 -44 -61 3 -14 15 -5 52 43 27 33 46 61
44 61 -3 0 -26 -19 -52 -43z"/>
<path d="M1652 2053 c-35 -52 -36 -57 -4 -34 18 12 32 31 32 42 0 26 -5 24
-28 -8z"/>
<path d="M1477 1935 c-10 -7 -17 -21 -15 -31 2 -15 6 -13 21 10 22 32 19 40
-6 21z"/>
<path d="M1663 1926 c-8 -14 -8 -25 0 -37 8 -12 5 -24 -12 -48 -26 -36 -14
-42 17 -8 19 20 21 29 14 67 -7 39 -9 43 -19 26z"/>
<path d="M1536 1870 c-29 -27 -58 -50 -64 -50 -7 0 -12 -17 -12 -42 l0 -41 28
37 c15 21 41 54 57 74 74 90 71 97 -9 22z"/>
<path d="M1656 1744 c-5 -14 -4 -15 9 -4 17 14 19 20 6 20 -5 0 -12 -7 -15
-16z"/>
<path d="M1350 1548 l-23 -33 34 30 c19 17 36 31 38 33 2 1 -2 2 -10 2 -9 0
-26 -15 -39 -32z"/>
<path d="M1205 1559 c-11 -17 1 -21 15 -4 8 9 8 15 2 15 -6 0 -14 -5 -17 -11z"/>
<path d="M1848 1444 c-45 -49 -47 -64 -10 -64 44 0 54 12 50 61 l-3 44 -37
-41z"/>
<path d="M1334 1448 c-59 -65 -79 -91 -68 -87 11 4 109 119 102 119 -2 0 -17
-15 -34 -32z"/>
<path d="M1374 1398 l-19 -23 23 19 c21 18 27 26 19 26 -2 0 -12 -10 -23 -22z"/>
<path d="M1475 1400 c-17 -19 -17 -20 0 -20 10 0 15 3 12 7 -4 3 -2 12 4 20
18 21 4 15 -16 -7z"/>
<path d="M1655 1400 c-15 -17 -16 -20 -3 -20 9 0 18 9 21 20 3 11 4 20 3 20
-2 0 -11 -9 -21 -20z"/>
<path d="M1565 1390 c-3 -5 1 -10 9 -10 9 0 16 5 16 10 0 6 -4 10 -9 10 -6 0
-13 -4 -16 -10z"/>
<path d="M2168 2623 c-12 -3 -18 -14 -18 -36 l0 -31 30 29 c43 41 39 52 -12
38z"/>
<path d="M2290 2570 c-54 -63 -60 -77 -13 -35 16 13 46 40 68 59 35 31 37 36
18 36 -14 0 -39 -21 -73 -60z"/>
<path d="M2430 2619 c0 -5 5 -7 10 -4 6 3 10 8 10 11 0 2 -4 4 -10 4 -5 0 -10
-5 -10 -11z"/>
<path d="M2594 2615 c3 -8 -7 -29 -22 -47 -29 -35 -18 -31 41 15 40 31 40 47
0 47 -18 0 -24 -4 -19 -15z"/>
<path d="M2854 2588 l-29 -31 33 22 c17 12 32 27 32 32 0 14 -4 11 -36 -23z"/>
<path d="M2955 2610 c3 -5 8 -10 11 -10 2 0 4 5 4 10 0 6 -5 10 -11 10 -5 0
-7 -4 -4 -10z"/>
<path d="M2985 2548 c-19 -18 -19 -20 -2 -32 25 -19 21 -37 -23 -96 -22 -29
-40 -56 -40 -59 0 -3 18 13 40 34 23 22 44 38 48 35 11 -8 13 50 5 96 -8 40
-8 41 -28 22z"/>
<path d="M2405 2470 c-17 -18 -16 -19 9 -26 33 -8 37 -4 29 24 -7 27 -15 28
-38 2z"/>
<path d="M2577 2463 c-12 -11 -8 -23 8 -23 8 0 15 7 15 15 0 16 -12 20 -23 8z"/>
<path d="M2645 2450 c-3 -5 -1 -10 4 -10 6 0 11 5 11 10 0 6 -2 10 -4 10 -3 0
-8 -4 -11 -10z"/>
<path d="M2338 2420 c-26 -15 -130 -159 -123 -170 10 -16 25 -11 25 8 0 10 27
46 60 81 33 35 60 70 60 77 0 16 0 16 -22 4z"/>
<path d="M2165 2390 c-16 -16 -26 -32 -23 -35 3 -3 17 10 32 30 33 43 29 45
-9 5z"/>
<path d="M2731 2359 c-51 -52 -73 -93 -25 -48 29 27 88 99 81 99 -2 0 -27 -23
-56 -51z"/>
<path d="M2137 2304 c-13 -13 -7 -52 9 -58 24 -9 25 -8 18 22 -8 32 -18 45
-27 36z"/>
<path d="M2650 2238 c-12 -22 -12 -22 6 -6 10 10 15 20 12 24 -4 3 -12 -5 -18
-18z"/>
<path d="M2817 2133 c-43 -34 -59 -60 -24 -42 39 21 77 50 77 60 0 15 -15 10
-53 -18z"/>
<path d="M2756 1977 c-70 -60 -154 -140 -136 -131 8 4 43 27 77 51 35 24 68
40 76 37 11 -4 19 5 27 30 18 55 9 58 -44 13z"/>
<path d="M2530 1959 c0 -5 5 -7 10 -4 6 3 10 8 10 11 0 2 -4 4 -10 4 -5 0 -10
-5 -10 -11z"/>
<path d="M2580 1900 c-19 -16 -42 -29 -51 -30 -10 0 -19 -11 -21 -25 -3 -14
-2 -25 1 -25 7 1 118 110 110 110 -2 0 -20 -13 -39 -30z"/>
<path d="M2757 1873 c-4 -3 -7 -13 -7 -22 1 -13 3 -13 11 2 11 19 8 33 -4 20z"/>
<path d="M2713 1775 l-28 -25 27 13 c15 6 30 18 33 25 7 18 0 15 -32 -13z"/>
<path d="M2535 1583 c-56 -51 -56 -53 -9 -15 46 38 82 73 73 72 -2 -1 -31 -26
-64 -57z"/>
<path d="M2375 1559 c-11 -17 1 -21 15 -4 8 9 8 15 2 15 -6 0 -14 -5 -17 -11z"/>
<path d="M2838 1536 c-23 -17 -23 -26 2 -26 13 0 20 7 20 20 0 23 0 23 -22 6z"/>
<path d="M2842 1405 c-10 -21 -9 -25 3 -25 9 0 15 10 15 25 0 14 -2 25 -3 25
-2 0 -9 -11 -15 -25z"/>
<path d="M2306 1404 c-9 -25 -7 -34 9 -34 22 0 38 37 19 44 -21 8 -21 8 -28
-10z"/>
<path d="M2402 1388 c-14 -14 -16 -28 -3 -28 5 0 11 9 14 20 6 23 5 24 -11 8z"/>
<path d="M2770 1390 c0 -5 5 -10 10 -10 6 0 10 5 10 10 0 6 -4 10 -10 10 -5 0
-10 -4 -10 -10z"/>
<path d="M2560 1380 c-8 -5 -12 -12 -9 -15 4 -3 12 1 19 10 14 17 11 19 -10 5z"/>
<path d="M2640 1380 c0 -5 5 -10 10 -10 6 0 10 5 10 10 0 6 -4 10 -10 10 -5 0
-10 -4 -10 -10z"/>
<path d="M2460 1370 c0 -5 5 -10 10 -10 6 0 10 5 10 10 0 6 -4 10 -10 10 -5 0
-10 -4 -10 -10z"/>
<path d="M2548 3634 c-38 -20 -36 -28 2 -9 17 9 30 18 30 20 0 7 -1 6 -32 -11z"/>
<path d="M578 2559 c-21 -11 -38 -22 -38 -24 0 -3 18 4 40 15 22 11 40 23 40
25 0 7 0 7 -42 -16z"/>
<path d="M3540 856 l0 -286 50 0 50 0 0 106 c0 102 1 105 21 102 18 -2 27 -20
52 -105 l30 -103 53 0 c30 0 54 3 54 7 0 5 -16 57 -36 116 l-36 109 26 27 c70
73 57 223 -25 282 -29 20 -48 24 -136 27 l-103 4 0 -286z m174 173 c22 -17 26
-28 26 -70 0 -58 -24 -89 -70 -89 l-30 0 0 83 c0 46 3 87 7 90 12 13 40 7 67
-14z"/>
<path d="M3930 855 l0 -285 125 0 125 0 0 45 0 45 -70 0 -70 0 0 75 0 75 65 0
65 0 0 45 0 45 -65 0 -65 0 0 75 0 75 70 0 70 0 0 45 0 45 -125 0 -125 0 0
-285z"/>
</g>
</svg>
